<svg width="1600" height="1000" viewBox="0 0 1600 1000" fill="none" xmlns="http://www.w3.org/2000/svg">
  <rect width="1600" height="1000" rx="30" fill="#F5F7F7"/>
  <rect x="28" y="28" width="1544" height="944" rx="30" fill="#FFFFFF"/>
  <rect x="28" y="28" width="1544" height="104" rx="30" fill="#FFFFFF"/>
  <rect x="28" y="102" width="1544" height="30" fill="#FFFFFF"/>
  <circle cx="58" cy="75" r="32" fill="#E9FBFB"/>
  <path d="M50 85C56 71 66 64 74 62C87 58 98 63 104 72C110 81 108 93 101 104" stroke="#0EA5A8" stroke-width="7" stroke-linecap="round"/>
  <text x="110" y="70" font-family="Inter, Arial, sans-serif" font-size="24" font-weight="700" fill="#0C5A60">SRI LANKAN</text>
  <text x="110" y="98" font-family="Inter, Arial, sans-serif" font-size="24" font-weight="700" fill="#0C5A60">FESTIVAL (PVT) LTD</text>
  <rect x="995" y="52" width="86" height="40" rx="20" fill="#F1FBFB"/>
  <rect x="110" y="170" width="1200" height="430" rx="28" fill="#0F6B70"/>
  <rect x="1110" y="170" width="462" height="430" rx="28" fill="#16B7B3"/>
  <rect x="1110" y="600" width="462" height="210" rx="0" fill="#11B6B2" opacity="0.92"/>
  <text x="150" y="285" font-family="Inter, Arial, sans-serif" font-size="24" letter-spacing="6" fill="#A9E6E3" opacity="0.88">EVENT MANAGEMENT AND EDUCATION COMPANY</text>
  <text x="150" y="372" font-family="Inter, Arial, sans-serif" font-size="54" font-weight="800" fill="#FFFFFF">Sri Lanka’s Leading Event</text>
  <text x="150" y="438" font-family="Inter, Arial, sans-serif" font-size="54" font-weight="800" fill="#FFFFFF">Management &amp; Education</text>
  <text x="150" y="504" font-family="Inter, Arial, sans-serif" font-size="54" font-weight="800" fill="#FFFFFF">Solutions Platform</text>
  <rect x="150" y="530" width="180" height="52" rx="12" fill="#17B7B3"/>
  <rect x="350" y="530" width="170" height="52" rx="12" fill="#17B7B3"/>
  <text x="187" y="564" font-family="Inter, Arial, sans-serif" font-size="20" font-weight="700" fill="#FFFFFF">Our Products</text>
  <text x="383" y="564" font-family="Inter, Arial, sans-serif" font-size="20" font-weight="700" fill="#FFFFFF">Our Services</text>
  <text x="150" y="615" font-family="Inter, Arial, sans-serif" font-size="22" fill="#DAF2EF">We carry a prestigious business brand in the country and also engage in high-level social service activities.</text>
  <rect x="1165" y="214" width="350" height="150" rx="18" fill="#FFFFFF" fill-opacity="0.08"/>
  <text x="1200" y="276" font-family="Inter, Arial, sans-serif" font-size="28" font-weight="800" fill="#FFFFFF">2K</text>
  <text x="1325" y="276" font-family="Inter, Arial, sans-serif" font-size="18" font-weight="500" fill="#FFFFFF">Client Trust</text>
  <text x="1200" y="320" font-family="Inter, Arial, sans-serif" font-size="28" font-weight="800" fill="#FFFFFF">96%</text>
  <text x="1325" y="320" font-family="Inter, Arial, sans-serif" font-size="18" font-weight="500" fill="#FFFFFF">Customers are satisfied</text>
  <rect x="1220" y="372" width="240" height="50" rx="12" fill="#FFFFFF"/>
  <text x="1272" y="405" font-family="Inter, Arial, sans-serif" font-size="20" font-weight="700" fill="#0F6B70">Join With Us!</text>
  <rect x="110" y="650" width="1300" height="230" rx="28" fill="#FFFFFF"/>
  <rect x="150" y="694" width="320" height="120" rx="18" fill="#0C6A70"/>
  <rect x="494" y="694" width="320" height="120" rx="18" fill="#18B7B3"/>
  <rect x="838" y="694" width="320" height="120" rx="18" fill="#0C6A70"/>
  <text x="185" y="743" font-family="Inter, Arial, sans-serif" font-size="24" font-weight="700" fill="#FFFFFF">Dog Festival Sri Lanka</text>
  <text x="529" y="743" font-family="Inter, Arial, sans-serif" font-size="24" font-weight="700" fill="#FFFFFF">Spiritual Temple</text>
  <text x="873" y="743" font-family="Inter, Arial, sans-serif" font-size="24" font-weight="700" fill="#FFFFFF">SLF Institute</text>
</svg>
