<svg width="1600" height="1000" viewBox="0 0 1600 1000" fill="none" xmlns="http://www.w3.org/2000/svg">
  <rect width="1600" height="1000" rx="30" fill="#0B101A"/>
  <rect x="28" y="28" width="1544" height="944" rx="30" fill="#0D1422"/>
  <rect x="28" y="28" width="1544" height="104" rx="30" fill="#111A2A"/>
  <rect x="28" y="102" width="1544" height="30" fill="#111A2A"/>
  <text x="88" y="86" font-family="Inter, Arial, sans-serif" font-size="30" font-weight="800" fill="#FFFFFF">Smart Traveller</text>
  <rect x="1150" y="54" width="92" height="34" rx="17" fill="#223353"/>
  <text x="1174" y="77" font-family="Inter, Arial, sans-serif" font-size="16" font-weight="700" fill="#DDE7F7">Home</text>
  <rect x="1254" y="54" width="112" height="34" rx="17" fill="#223353"/>
  <text x="1272" y="77" font-family="Inter, Arial, sans-serif" font-size="16" font-weight="700" fill="#DDE7F7">Tours</text>
  <rect x="1380" y="54" width="92" height="34" rx="17" fill="#FFB86B"/>
  <text x="1395" y="77" font-family="Inter, Arial, sans-serif" font-size="16" font-weight="800" fill="#101B2D">Book</text>
  <rect x="82" y="170" width="920" height="530" rx="28" fill="url(#accent)"/>
  <defs>
    <linearGradient id="accent" x1="120" y1="160" x2="1500" y2="860" gradientUnits="userSpaceOnUse">
      <stop stop-color="#FFB86B"/>
      <stop offset="1" stop-color="#7AA8FF"/>
    </linearGradient>
    <linearGradient id="card" x1="0" y1="0" x2="0" y2="1">
      <stop stop-color="#16243A"/>
      <stop offset="1" stop-color="#101A2B"/>
    </linearGradient>
  </defs>
  <rect x="110" y="198" width="520" height="130" rx="20" fill="#FFFFFF" fill-opacity="0.12"/>
  <text x="140" y="245" font-family="Inter, Arial, sans-serif" font-size="22" letter-spacing="4" fill="#FFFFFF" opacity="0.9">SMART TRAVELLER</text>
  <text x="140" y="292" font-family="Inter, Arial, sans-serif" font-size="58" font-weight="800" fill="#FFFFFF">Plan, book, and manage</text>
  <text x="140" y="360" font-family="Inter, Arial, sans-serif" font-size="58" font-weight="800" fill="#FFFFFF">travel experiences</text>
  <rect x="110" y="412" width="182" height="52" rx="14" fill="#FFFFFF"/>
  <text x="145" y="446" font-family="Inter, Arial, sans-serif" font-size="20" font-weight="800" fill="#111A2A">Explore Trips</text>
  <rect x="310" y="412" width="166" height="52" rx="14" fill="#111A2A" fill-opacity="0.22"/>
  <text x="346" y="446" font-family="Inter, Arial, sans-serif" font-size="20" font-weight="700" fill="#FFFFFF">Manage</text>
  <rect x="640" y="188" width="300" height="150" rx="24" fill="#FFFFFF" fill-opacity="0.22"/>
  <circle cx="700" cy="245" r="28" fill="#FFFFFF"/>
  <path d="M688 243L707 223L726 243L707 263L688 243Z" fill="#101B2D"/>
  <text x="744" y="238" font-family="Inter, Arial, sans-serif" font-size="22" font-weight="800" fill="#FFFFFF">Real-time booking</text>
  <text x="744" y="270" font-family="Inter, Arial, sans-serif" font-size="18" fill="#F7FAFF">Quick reservations for trips and tours.</text>
  <rect x="639" y="360" width="300" height="150" rx="24" fill="#FFFFFF" fill-opacity="0.18"/>
  <circle cx="700" cy="420" r="28" fill="#FFFFFF"/>
  <path d="M684 424C686 409 697 400 711 400C725 400 736 409 738 424C736 439 725 448 711 448C697 448 686 439 684 424Z" fill="#101B2D"/>
  <text x="744" y="412" font-family="Inter, Arial, sans-serif" font-size="22" font-weight="800" fill="#FFFFFF">Clean itinerary UI</text>
  <text x="744" y="444" font-family="Inter, Arial, sans-serif" font-size="18" fill="#F7FAFF">Designed for clarity on mobile screens.</text>
  <rect x="1048" y="170" width="470" height="530" rx="28" fill="url(#card)"/>
  <rect x="1080" y="210" width="406" height="64" rx="18" fill="#18273E"/>
  <text x="1118" y="250" font-family="Inter, Arial, sans-serif" font-size="22" font-weight="700" fill="#DCE8F6">Today’s trip summary</text>
  <rect x="1080" y="300" width="406" height="112" rx="22" fill="#1B2B44"/>
  <text x="1118" y="340" font-family="Inter, Arial, sans-serif" font-size="18" fill="#A8B6CF">Destination</text>
  <text x="1118" y="376" font-family="Inter, Arial, sans-serif" font-size="24" font-weight="700" fill="#FFFFFF">Kandy Hills Weekend Tour</text>
  <rect x="1080" y="432" width="192" height="126" rx="22" fill="#1B2B44"/>
  <rect x="1294" y="432" width="192" height="126" rx="22" fill="#1B2B44"/>
  <text x="1118" y="474" font-family="Inter, Arial, sans-serif" font-size="18" fill="#A8B6CF">Guests</text>
  <text x="1118" y="512" font-family="Inter, Arial, sans-serif" font-size="34" font-weight="800" fill="#FFFFFF">12</text>
  <text x="1332" y="474" font-family="Inter, Arial, sans-serif" font-size="18" fill="#A8B6CF">Progress</text>
  <text x="1332" y="512" font-family="Inter, Arial, sans-serif" font-size="34" font-weight="800" fill="#FFFFFF">87%</text>
  <rect x="1080" y="584" width="406" height="86" rx="20" fill="#FFB86B"/>
  <text x="1120" y="638" font-family="Inter, Arial, sans-serif" font-size="26" font-weight="800" fill="#101B2D">Seamless journey experience</text>
</svg>
