<svg version="1.1" class="wgu-logo" xmlns="http://www.w3.org/2000/svg" xmlns:xlink="http://www.w3.org/1999/xlink" x="0px" y="0px" viewBox="0 0 262 129" style="enable-background:new 0 0 262 129;" xml:space="preserve">
                              <path class="navy" d="M0,91.3V0h228.2l14.7,13.7l19.1,90.2L92.8,129L0,91.3z"/>
                              <path class="white" d="M60.4,58.7H56c5.1,5.9,0.8,12.1-0.2,12.1c-1.4,0-3.8-12.1-3.8-12.1h-2.6c0,0,0.3,1.2,0.8,3L47,70.6l-3.4-11.9
                                  H41l4.2,13.9h2.5l2.9-9.4c0.8,2.6,1.7,5.6,2.6,7.3c1.5,2.9,2.1,2.4,3.1,1.5c0.5-0.5,2-2.2,2.7-4.3C60.6,63.6,60.4,58.7,60.4,58.7
                                   M64.8,64.9v7.7h-2.4v-8.1l-0.3-1.8h2.7v1.9c0.9-1.4,3.3-1.9,3.4-1.9v1.7c-0.3-0.1-0.7-0.1-1.2-0.1C66.3,64.4,65.5,64.5,64.8,64.9
                                   M74.1,72.9c-1.7,0-3-0.4-4-1.3c-0.9-0.9-1.3-2.2-1.3-3.9c0-1.6,0.5-3.1,1.4-4c0.9-1,2.4-1.3,3.9-1.3c1.3,0,2.5,0.3,3.3,1.1
                                  c0.8,0.8,1.1,2,1.1,3.2v0.7l-0.6,0.7h-6.5c0.1,1.4,0.3,2.3,0.8,2.8c0.5,0.5,1.2,0.8,2.2,0.8c1.3,0,2.4-0.4,3.4-1.3v2
                                  C77,72.6,75.7,72.9,74.1,72.9 M71.2,67.8l4.8-0.8c0-0.1,0-0.3,0-0.5c0-1.1-0.2-1.8-0.6-2.2c-0.3-0.3-0.8-0.6-1.8-0.6
                                  c-0.7,0-1.4,0.1-1.9,0.3C71.5,64.7,71.3,66.4,71.2,67.8 M83.4,68.6l-1.5,2.5l-0.7,1.5h-2.4l4-4.9l-3.7-5h2.7l2.8,3.7l1.2-2.2
                                  l0.7-1.5H89l-3.7,4.6l3.9,5.4h-2.6L83.4,68.6z M92.8,64.7v7.9h-2.4V59.2l-0.2-2h2.6v7.2c1.2-0.9,2.5-1.9,4-1.9
                                  c0.9,0,1.8,0.3,2.3,0.9c0.6,0.6,0.8,1.3,0.8,2.4v7h-2.4v-6.7c0-0.7-0.2-1.2-0.5-1.5c-0.3-0.3-0.8-0.5-1.4-0.5
                                  C94.8,63.9,93.8,64.2,92.8,64.7 M108.6,71.4c-1.2,1-2.6,1.5-3.9,1.5c-1,0-1.8-0.3-2.3-0.9c-0.5-0.5-0.8-1.2-0.8-2.1
                                  c0-1.1,0.5-1.9,1.1-2.3c0.9-0.7,2.5-1.1,4.5-1.1c0.4,0,0.9,0,1.3,0v-0.5c0-0.9-0.2-1.5-0.6-1.8c-0.3-0.3-0.9-0.5-1.6-0.5
                                  c-1.3,0-3.3,1.2-3.3,1.2v-2.2c0.7-0.1,2.1-0.3,3.4-0.3c1.4,0,2.7,0.3,3.5,1.1c0.7,0.7,0.9,1.8,0.9,3.1v5l0.2,1.2h-2.5L108.6,71.4
                                  L108.6,71.4z M108.5,70.7v-2.8c-0.6-0.1-1.3-0.2-2.1-0.2c-1,0-1.7,0.1-2.2,0.3c-0.1,0.5-0.1,1-0.1,1.5c0,1.1,0.3,1.5,0.5,1.8
                                  c0.3,0.3,0.7,0.4,1.2,0.4C106.6,71.6,107.6,71.2,108.5,70.7 M115.5,64.6v8h-2.4v-8.1l-0.5-1.8l2.7,0v1.2c1-0.8,2.3-1.5,3.6-1.5
                                  c0.8,0,1.6,0.3,2.1,0.8c0.2,0.2,0.4,0.5,0.5,0.8c1-0.9,2.3-1.6,3.7-1.6c0.8,0,1.6,0.3,2.1,0.8c0.5,0.5,0.8,1.3,0.8,2.3v7.1h-2.4
                                  v-6.9c0-0.7-0.1-1.1-0.5-1.4c-0.3-0.3-0.7-0.4-1.2-0.4c-0.8,0-1.6,0.3-2.4,0.8c0.1,0.3,0.1,0.6,0.1,0.9v7.1h-2.4v-6.9
                                  c0-0.7-0.2-1.1-0.5-1.4c-0.3-0.3-0.7-0.4-1.2-0.4C117,63.9,116.2,64.2,115.5,64.6 M143.6,61.2l-0.4-2.4h1.5l-0.1,3.3v5.8
                                  c0,1.7-0.5,3-1.2,3.8c-0.9,0.9-2.4,1.3-4.1,1.3c-1.7,0-3.3-0.4-4.2-1.3c-0.7-0.7-1.2-1.8-1.2-3.3v-9.6h1.4v9.2c0,1.4,0.3,2.4,0.9,3
                                  c0.6,0.6,1.6,0.9,3.1,0.9c1.9,0,3-0.5,3.6-0.9c0.3-0.6,0.5-1.7,0.5-2.7V61.2L143.6,61.2z M148.9,64.7v8h-1.4v-8.4l-0.3-1.5h1.6v1.4
                                  c1.3-0.8,2.6-1.4,4.2-1.4c1.1,0,1.9,0.3,2.4,0.8c0.5,0.5,0.8,1.2,0.8,2.2v7h-1.4v-6.7c0-0.8-0.2-1.4-0.6-1.8c-0.4-0.4-1-0.6-1.7-0.6
                                  C151.5,63.5,150.2,63.9,148.9,64.7L148.9,64.7z M159.1,64.3l-0.4-1.5h1.8v9.9h-1.4C159.1,72.6,159.1,64.3,159.1,64.3z M166.2,72.6
                                  l-3.9-9.9h1.4l3.5,9.1l2.9-7.5l0.1-1.6h1.8l-4.4,9.9H166.2z M174.3,71.7c-0.9-0.9-1.3-2.2-1.3-3.9c0-1.5,0.5-3.2,1.3-4
                                  c0.9-0.9,2.4-1.2,3.6-1.2c1.2,0,2.3,0.2,3.1,1c0.8,0.8,1.1,2,1.1,2.9v0.8l-0.4,0.5l-7.2,0.1c0,1.7,0.3,2.7,1,3.4
                                  c0.5,0.5,1.4,0.9,2.5,0.9c1.5,0,2.6-0.5,3.4-1.4v1.5c-0.7,0.2-1.9,0.6-3.5,0.6C176.5,72.9,175.2,72.6,174.3,71.7 M174.5,67.7
                                  l6.1-0.5v-0.3c0-1.4-0.2-2.2-0.7-2.7c-0.4-0.4-1.1-0.7-2.2-0.7c-0.9,0-1.9,0.2-2.5,0.5C174.7,64.7,174.5,66.3,174.5,67.7z
                                   M184.3,72.6v-8.3l-0.3-1.6h1.6v1.5c1-1.2,2.2-1.6,2.9-1.6c0.2,0,0.4,0,0.5,0v1.1c0,0-0.5,0-1,0c-0.7,0-1.7,0.1-2.5,0.7v8.2
                                  C185.6,72.6,184.3,72.6,184.3,72.6z M197.3,64.5c-1.1-0.8-2.3-1-3.5-1c-0.8,0-1.6,0.2-1.9,0.3c-0.1,0.3-0.3,0.6-0.3,1.1
                                  c0,0.9,0.4,1.5,1.9,1.9l1.7,0.5c2.1,0.6,3,1.4,3,2.7c0,0.8-0.3,1.4-0.7,1.9c-0.7,0.7-2,1.1-3.6,1.1c-1.3,0-2.7-0.2-3.2-0.4v-1.8
                                  c0.9,0.8,2,1.3,3.9,1.3c1.2,0,2-0.3,2.4-0.4c0.1-0.3,0.2-0.7,0.2-1.1c0-0.8-0.5-1.5-2.2-2l-1.8-0.5c-1.7-0.5-2.7-1.2-2.7-2.6
                                  c0-0.6,0.2-1.3,0.7-1.8c0.6-0.6,1.8-1,3.4-1c0.9,0,2,0.1,2.7,0.4L197.3,64.5C197.3,64.5,197.3,64.5,197.3,64.5z M200.4,64.3
                                  l-0.4-1.3h1.8v9.7h-1.4L200.4,64.3L200.4,64.3z M219.2,62.7l-0.1,1.6l-2.7,7.4l-3.6-9h-6.3v-1.6l-2.7,2.5h1.3v6.7
                                  c0,1.8,0.9,2.5,2.7,2.5c0.8,0,1.7-0.2,2.1-0.3v-1.3c-0.6,0.5-1.3,0.9-2.1,0.9c-0.8,0-1.2-0.3-1.2-1.3v-7.3l5.2,0.1l3.7,9h0.6
                                  l-0.3,0.8c-0.4,1-0.7,1.5-0.9,1.8c-0.3,0.1-0.7,0.1-1.1,0.1c-0.4,0-0.7,0-1.1-0.1v1.4c0.2,0.1,0.5,0.1,0.6,0.1
                                  c1.2,0,2.2-0.8,3.1-2.9l4.5-11L219.2,62.7L219.2,62.7L219.2,62.7z M159.6,61c0,0.1-1.4-1.2-1.2-1.2c-0.1,0,1.2-1.4,1.2-1.2
                                  c0-0.1,1.4,1.2,1.2,1.2C160.9,59.8,159.6,61.2,159.6,61L159.6,61z M149,38.6h-4.4c5.1,5.9,0.8,12.1-0.2,12.1
                                  c-1.4,0-3.8-12.1-3.8-12.1h-2.6c0,0,0.3,1.2,0.8,3l-3.1,8.9l-3.4-11.9h-2.6l4.2,13.9h2.5l2.9-9.4c0.8,2.6,1.7,5.6,2.6,7.3
                                  c1.5,2.9,2.1,2.4,3.1,1.5c0.5-0.5,2-2.2,2.7-4.3C149.2,43.5,149,38.6,149,38.6 M51.9,47.2v5.3h-1.4V38.7H55c2.7,0,4.4,1.1,4.4,4.1
                                  c0,1.3-0.4,2.3-1.1,3c-1.1,1.1-3.1,1.4-6.3,1.4L51.9,47.2L51.9,47.2z M57.4,45.8c0.2-0.6,0.5-1.6,0.5-2.8c0-2.4-0.8-3.5-3.7-3.5
                                  c-0.8,0-1.7,0.1-2.3,0.2v6.5c0.5,0.1,1.1,0.1,1.7,0.1C55,46.3,56.6,46.1,57.4,45.8 M61.4,52.5v-8.3l-0.3-1.5h1.6V44
                                  c1-1.2,2.3-1.4,3-1.4c0.2,0,0.5,0,0.6,0v1.1c0,0-0.6,0-1,0c-0.7,0-1.7,0.1-2.5,0.7v8.2L61.4,52.5C61.4,52.6,61.4,52.5,61.4,52.5z
                                   M68.3,44.2L68,42.7h1.7v9.9h-1.4V44.2z M96.1,44.4c-1.1-0.8-2.3-1-3.5-1c-0.8,0-1.6,0.2-1.9,0.3c-0.1,0.3-0.3,0.6-0.3,1.2
                                  c0,0.9,0.4,1.5,1.9,1.9l1.7,0.5c2.1,0.6,3,1.4,3,2.7c0,0.8-0.3,1.4-0.7,1.9c-0.7,0.7-2,1.1-3.6,1.1c-1.3,0-2.7-0.2-3.2-0.4v-1.8
                                  c0.9,0.8,2,1.3,3.9,1.3c1.2,0,2-0.3,2.4-0.4c0.1-0.3,0.2-0.7,0.2-1.1c0-0.8-0.5-1.5-2.2-2L92,48c-1.7-0.5-2.7-1.2-2.7-2.6
                                  c0-0.6,0.2-1.3,0.7-1.8c0.6-0.6,1.8-1,3.4-1c0.9,0,2,0.1,2.7,0.4L96.1,44.4C96.1,44.4,96.1,44.4,96.1,44.4z M102.8,56.7
                                  c-2.1,0-3.4-0.4-4-1c-0.3-0.3-0.5-0.8-0.5-1.2c0-1.1,0.9-1.8,2.1-2.2c-0.1-0.1-0.2-0.1-0.3-0.2c-0.2-0.2-0.4-0.5-0.4-0.9
                                  c0-0.7,0.5-1.2,1.3-1.6c-0.4-0.1-0.8-0.3-1.1-0.6c-0.7-0.7-0.9-1.8-0.9-2.6c0-1.1,0.4-2.3,1.1-2.9c0.7-0.7,2-1,3.3-1
                                  c1.1,0,2.2,0.2,2.9,0.9l2.7-0.9v1.5l-2.3-0.2c0.5,0.7,0.6,1.6,0.6,2.2c0,1.2-0.4,2.4-1.2,3c-0.7,0.6-2,0.8-3.1,0.8
                                  c-0.5,0-0.9,0-1.4-0.1c-0.4,0.3-0.7,0.6-0.7,1c0,0.2,0.1,0.3,0.2,0.4c0.2,0.2,0.5,0.3,2.6,0.3c2.9,0,3.7,0.3,4.2,0.8
                                  c0.4,0.4,0.6,0.8,0.6,1.5c0,0.7-0.2,1.3-0.7,1.7C107,56.3,104.9,56.7,102.8,56.7 M107,55.6c0.1-0.3,0.3-0.8,0.3-1.3
                                  c0-0.5-0.1-0.8-0.4-1.1c-0.5-0.5-1.3-0.5-3.4-0.5c-1.1,0-1.9,0-2.5-0.1c-1,0.4-1.5,1-1.5,1.7c0,0.4,0.1,0.7,0.4,1
                                  c0.5,0.5,1.4,0.7,3.2,0.7C104.7,56,106.1,55.8,107,55.6z M103,49.2c0.9,0,2-0.2,2.5-0.3c0.1-0.7,0.2-1.3,0.2-2.4c0-1-0.1-2-0.6-2.5
                                  c-0.4-0.4-1.1-0.6-2-0.6c-0.9,0-2,0.2-2.5,0.3c-0.2,0.8-0.2,1.7-0.2,2.6c0,1.1,0.2,1.9,0.6,2.4C101.5,49,102.3,49.2,103,49.2
                                   M115,52.8c-1.7,0-2.9-0.4-3.7-1.2c-0.9-0.9-1.3-2.2-1.3-3.9c0-1.6,0.4-3.1,1.3-3.9c0.8-0.8,2.2-1.2,3.7-1.2c1.7,0,2.9,0.4,3.7,1.2
                                  c0.9,0.9,1.3,2.2,1.3,3.9c0,1.6-0.4,3.1-1.3,3.9C117.9,52.4,116.5,52.8,115,52.8z M115.2,52c1.2,0,2.1-0.2,2.7-0.4
                                  c0.3-0.8,0.6-1.8,0.6-3.8c0-1.8-0.3-2.9-1-3.6c-0.6-0.6-1.5-0.8-2.7-0.8c-1.2,0-2.1,0.2-2.7,0.4c-0.3,0.8-0.6,2.2-0.6,3.8
                                  c0,1.8,0.3,2.9,1,3.6C113.1,51.8,114,52,115.2,52L115.2,52z M122.4,38.6l-0.4-1.3h1.8v15.2h-1.4V38.6L122.4,38.6z M176.8,52.3
                                  c-0.6,0.2-2,0.5-3.4,0.5c-1.5,0-2.7-0.3-3.5-1c-1.1-0.8-1.7-2.2-1.7-4.2c0-1.6,0.5-2.9,1.2-3.8c1-1.1,2.6-1.5,4.2-1.5
                                  c1,0,2.2,0.2,2.8,0.3v2.2c-0.9-0.6-2-1-3.4-1c-0.6,0-1.3,0.1-1.9,0.2c-0.3,0.8-0.5,2.1-0.5,3.5c0,1.7,0.3,2.8,0.9,3.4
                                  c0.4,0.4,1.1,0.7,2.1,0.7c1.2,0,2.3-0.5,3.2-1.4L176.8,52.3L176.8,52.3z M185.5,44.9c-1.1-0.8-2.4-1.2-3.8-1.2
                                  c-0.6,0-1.2,0.1-1.6,0.2c-0.1,0.3-0.2,0.6-0.2,0.9c0,0.7,0.4,1.2,1.7,1.5l1.5,0.3c2.3,0.5,3.3,1.5,3.3,2.9c0,0.9-0.3,1.6-0.8,2.1
                                  c-0.8,0.8-2.2,1.2-3.9,1.2c-1.4,0-2.9-0.3-3.5-0.4V50c1.1,0.9,2.5,1.5,4.3,1.5c0.9,0,1.6-0.2,1.9-0.3c0.1-0.2,0.2-0.5,0.2-0.8
                                  c0-0.7-0.4-1.2-1.9-1.5l-1.6-0.4c-2-0.4-3.1-1.3-3.1-2.9c0-0.8,0.3-1.5,0.8-2c0.7-0.7,1.9-1.2,3.6-1.2c1.1,0,2.3,0.2,3,0.4
                                  L185.5,44.9L185.5,44.9z M153.3,44.9v7.7h-2.4v-8.1l-0.3-1.8h2.7v1.9c0.9-1.4,3.3-1.9,3.4-1.9v1.7c-0.3-0.1-0.7-0.1-1.2-0.1
                                  C154.8,44.3,154,44.5,153.3,44.9 M162.6,52.8c-1.7,0-3-0.4-4-1.3c-0.9-0.9-1.3-2.2-1.3-3.9s0.5-3.1,1.4-4c1-1,2.4-1.3,3.9-1.3
                                  c1.3,0,2.5,0.3,3.3,1.1c0.8,0.8,1.1,2,1.1,3.2v0.7l-0.6,0.7h-6.5c0.1,1.4,0.3,2.3,0.9,2.8c0.5,0.5,1.2,0.8,2.2,0.8
                                  c1.3,0,2.4-0.4,3.4-1.3v2C165.5,52.5,164.2,52.8,162.6,52.8 M159.8,47.7l4.8-0.8c0-0.1,0-0.3,0-0.5c0-1.1-0.2-1.8-0.6-2.2
                                  c-0.3-0.3-0.8-0.6-1.8-0.6c-0.7,0-1.4,0.1-1.9,0.3C160,44.6,159.8,46.3,159.8,47.7 M194.5,51.3c-1.2,1-2.6,1.5-3.9,1.5
                                  c-1,0-1.8-0.3-2.3-0.9c-0.5-0.5-0.8-1.2-0.8-2.1c0-1.1,0.5-1.9,1.1-2.3c0.9-0.7,2.5-1.1,4.5-1.1c0.4,0,0.9,0,1.3,0V46
                                  c0-0.9-0.2-1.5-0.6-1.8c-0.3-0.3-0.9-0.5-1.6-0.5c-1.3,0-3.3,1.2-3.3,1.2v-2.2c0.7-0.1,2.1-0.3,3.4-0.3c1.4,0,2.7,0.3,3.5,1.1
                                  c0.7,0.7,0.9,1.8,0.9,3.1v5l0.2,1.2h-2.5L194.5,51.3L194.5,51.3z M194.4,50.6v-2.8c-0.6-0.1-1.3-0.2-2.1-0.2c-1,0-1.7,0.1-2.2,0.3
                                  c-0.1,0.5-0.1,1-0.1,1.5c0,1.1,0.3,1.5,0.5,1.8c0.3,0.3,0.7,0.4,1.2,0.4C192.5,51.5,193.6,51.2,194.4,50.6 M201.4,44.5v8h-2.4v-8.1
                                  l-0.5-1.8l2.7,0v1.2c1-0.8,2.3-1.5,3.6-1.5c0.8,0,1.6,0.3,2.1,0.8c0.2,0.2,0.4,0.5,0.5,0.8c1-0.9,2.3-1.6,3.7-1.6
                                  c0.8,0,1.6,0.3,2.1,0.8c0.5,0.5,0.8,1.3,0.8,2.3v7.1h-2.4v-6.9c0-0.7-0.1-1.1-0.5-1.4c-0.3-0.3-0.7-0.4-1.2-0.4
                                  c-0.8,0-1.6,0.3-2.4,0.8c0.1,0.3,0.1,0.6,0.1,0.9v7.1h-2.4v-6.9c0-0.7-0.2-1.1-0.5-1.4c-0.3-0.3-0.7-0.4-1.2-0.4
                                  C202.9,43.8,202.2,44.1,201.4,44.5 M86.4,42.7l-0.1,1.5l-2.7,7.4L80,42.7h-5.3v-1.5c0-1.1,0.1-2.2,0.2-2.9c0.6-0.2,1.2-0.3,1.8-0.3
                                  c0.8,0,1.4,0.1,2,0.4v-1.2c-0.3-0.1-1-0.1-1.5-0.1c-2.5,0-4,1.6-4,4.5v1.1h-1.3l-0.4,0.7l1.8,0v9.2h1.4v-9.2l4.1,0.1l3.8,9.1h0.6
                                  l-0.3,0.8c-0.4,1-0.7,1.5-0.9,1.8c-0.3,0.1-0.7,0.1-1.1,0.1c-0.4,0-0.7,0-1.1-0.1v1.4c0.2,0.1,0.5,0.1,0.6,0.1
                                  c1.2,0,2.2-0.8,3.1-2.9l4.5-11L86.4,42.7L86.4,42.7L86.4,42.7z M200.9,61c0,0.1-1.4-1.2-1.2-1.2c-0.1,0,1.2-1.4,1.2-1.2
                                  c0-0.1,1.4,1.2,1.2,1.2C202.3,59.8,200.9,61.2,200.9,61z"/>
                              <path class="white" d="M68.8,41.1L68.8,41.1c0,0.1-1.4-1.2-1.2-1.2c-0.1,0,1.2-1.4,1.2-1.2c0-0.1,1.4,1.2,1.2,1.2 C70.2,39.9,68.8,41.3,68.8,41.1"/>
                        </svg>